<svg width="34" height="29" viewBox="0 0 34 29" fill="none" xmlns="http://www.w3.org/2000/svg">
<path d="M22.3925 24.8198C22.2418 24.8934 22.0886 24.9049 21.9328 24.8543C21.7771 24.8037 21.659 24.7094 21.5787 24.5713L20.0715 21.8108C19.9911 21.6728 19.9785 21.5324 20.0338 21.3898C20.089 21.2472 20.192 21.139 20.3427 21.0654C20.4935 20.9918 20.6467 20.9803 20.8024 21.0309C20.9582 21.0815 21.0763 21.1759 21.1566 21.3139L22.6638 24.0744C22.7442 24.2125 22.7568 24.3528 22.7015 24.4954C22.6463 24.638 22.5433 24.7462 22.3925 24.8198ZM24.5026 28.6845C24.3519 28.7582 24.1987 28.7697 24.0429 28.7191C23.8872 28.6684 23.7691 28.5741 23.6887 28.4361L22.483 26.2277C22.4026 26.0896 22.39 25.9493 22.4453 25.8067C22.5006 25.664 22.6035 25.5559 22.7543 25.4823C22.905 25.4087 23.0582 25.3972 23.214 25.4478C23.3697 25.4984 23.4878 25.5927 23.5682 25.7308L24.7739 27.9392C24.8543 28.0772 24.8669 28.2176 24.8116 28.3602C24.7563 28.5028 24.6533 28.6109 24.5026 28.6845ZM25.7385 25.924C25.5878 25.9976 25.4346 26.0091 25.2788 25.9585C25.1231 25.9079 25.005 25.8136 24.9246 25.6755L22.8146 21.8108C22.7342 21.6728 22.7216 21.5324 22.7769 21.3898C22.8321 21.2472 22.9351 21.139 23.0858 21.0654C23.2366 20.9918 23.3898 20.9803 23.5455 21.0309C23.7013 21.0815 23.8194 21.1759 23.8997 21.3139L26.0098 25.1786C26.0902 25.3167 26.1028 25.457 26.0475 25.5996C25.9922 25.7423 25.8892 25.8504 25.7385 25.924ZM27.0347 23.1635C26.884 23.2371 26.7308 23.2486 26.575 23.198C26.4193 23.1473 26.3012 23.053 26.2208 22.915L25.633 21.8108C25.5526 21.6728 25.5401 21.5324 25.5953 21.3898C25.6506 21.2472 25.7536 21.139 25.9043 21.0654C26.055 20.9918 26.2058 20.9803 26.3565 21.0309C26.5072 21.0815 26.6227 21.1759 26.7031 21.3139L27.306 22.4181C27.3864 22.5561 27.399 22.6965 27.3437 22.8391C27.2884 22.9817 27.1854 23.0898 27.0347 23.1635ZM27.3964 28.6707C27.2457 28.7444 27.0925 28.7582 26.9367 28.7121C26.781 28.6661 26.6629 28.5741 26.5826 28.4361L25.9797 27.3319C25.8993 27.1938 25.8867 27.0535 25.942 26.9109C25.9973 26.7683 26.1002 26.6601 26.251 26.5865C26.4017 26.5129 26.5549 26.5014 26.7107 26.552C26.8664 26.6026 26.9845 26.697 27.0649 26.835L27.6677 27.9392C27.7481 28.0772 27.7607 28.2153 27.7054 28.3533C27.6502 28.4913 27.5472 28.5971 27.3964 28.6707ZM30.1998 28.6707C30.0491 28.7444 29.8959 28.7582 29.7401 28.7121C29.5844 28.6661 29.4663 28.5741 29.3859 28.4361L27.2759 24.5713C27.1955 24.4333 27.1829 24.293 27.2382 24.1503C27.2934 24.0077 27.3964 23.8996 27.5472 23.826C27.6979 23.7524 27.8511 23.7409 28.0069 23.7915C28.1626 23.8421 28.2807 23.9364 28.361 24.0744L30.4711 27.9392C30.5515 28.0772 30.5641 28.2153 30.5088 28.3533C30.4535 28.4913 30.3505 28.5971 30.1998 28.6707ZM31.1343 25.3719C30.9836 25.4455 30.8303 25.457 30.6746 25.4064C30.5189 25.3558 30.4008 25.2615 30.3204 25.1234L28.5118 21.8108C28.4314 21.6728 28.4188 21.5324 28.4741 21.3898C28.5293 21.2472 28.6323 21.139 28.7831 21.0654C28.9338 20.9918 29.087 20.9803 29.2428 21.0309C29.3985 21.0815 29.5166 21.1759 29.5969 21.3139L31.4056 24.6265C31.486 24.7646 31.4985 24.9049 31.4433 25.0475C31.388 25.1902 31.285 25.2983 31.1343 25.3719ZM32.9429 28.6845C32.7922 28.7582 32.639 28.7697 32.4832 28.7191C32.3275 28.6684 32.2094 28.5741 32.129 28.4361L31.2247 26.7798C31.1443 26.6417 31.1318 26.5014 31.187 26.3588C31.2423 26.2162 31.3453 26.108 31.496 26.0344C31.6467 25.9608 31.8 25.9493 31.9557 25.9999C32.1115 26.0505 32.2295 26.1448 32.3099 26.2829L33.2142 27.9392C33.2946 28.0772 33.3072 28.2176 33.2519 28.3602C33.1966 28.5028 33.0936 28.6109 32.9429 28.6845Z" fill="url(#paint0_linear_40000034_143)"/>
<path d="M7.72727 2.31818V0.772727C7.72727 0.347727 8.075 0 8.5 0C8.925 0 9.27273 0.347727 9.27273 0.772727V2.31818C9.27273 2.74318 8.925 3.09091 8.5 3.09091C8.075 3.09091 7.72727 2.74318 7.72727 2.31818ZM13.4145 4.675L14.5041 3.57773C14.8055 3.27636 14.8055 2.78955 14.5041 2.48818C14.2027 2.18682 13.7159 2.18682 13.4145 2.48818L12.325 3.58545C12.0236 3.88682 12.0236 4.37364 12.325 4.675C12.6264 4.97636 13.1132 4.97636 13.4145 4.675ZM16.2273 7.72727H14.6818C14.2568 7.72727 13.9091 8.075 13.9091 8.5C13.9091 8.925 14.2568 9.27273 14.6818 9.27273H16.2273C16.6523 9.27273 17 8.925 17 8.5C17 8.075 16.6523 7.72727 16.2273 7.72727ZM8.5 13.9091C8.075 13.9091 7.72727 14.2568 7.72727 14.6818V16.2273C7.72727 16.6523 8.075 17 8.5 17C8.925 17 9.27273 16.6523 9.27273 16.2273V14.6818C9.27273 14.2568 8.925 13.9091 8.5 13.9091ZM3.58545 4.675L2.48818 3.58545C2.18682 3.28409 2.18682 2.78955 2.48818 2.49591C2.78955 2.20227 3.28409 2.19455 3.57773 2.49591L4.66727 3.58545C4.96864 3.88682 4.96864 4.38136 4.66727 4.675C4.36591 4.96864 3.87909 4.97636 3.58545 4.675ZM12.325 12.325C12.0236 12.6264 12.0236 13.1209 12.325 13.4145L13.4145 14.5041C13.7159 14.8055 14.2105 14.8055 14.5041 14.5041C14.8055 14.2027 14.8055 13.7082 14.5041 13.4145L13.4145 12.325C13.1209 12.0236 12.6264 12.0236 12.325 12.325ZM0.772727 9.27273H2.31818C2.74318 9.27273 3.09091 8.925 3.09091 8.5C3.09091 8.075 2.74318 7.72727 2.31818 7.72727H0.772727C0.347727 7.72727 0 8.075 0 8.5C0 8.925 0.347727 9.27273 0.772727 9.27273ZM3.58545 14.5118L4.675 13.4223C4.97636 13.1209 4.97636 12.6264 4.675 12.3327C4.37364 12.0391 3.87909 12.0314 3.58545 12.3327L2.49591 13.4223C2.19455 13.7236 2.19455 14.2182 2.49591 14.5118C2.78955 14.8132 3.28409 14.8132 3.58545 14.5118ZM8.5 3.86364C5.94227 3.86364 3.86364 5.94227 3.86364 8.5C3.86364 11.0577 5.94227 13.1364 8.5 13.1364C11.0577 13.1364 13.1364 11.0577 13.1364 8.5C13.1364 5.94227 11.0577 3.86364 8.5 3.86364Z" fill="#E3A572"/>
<path d="M27.2084 12.1051C26.3928 8.04671 22.7586 5 18.3928 5C14.9265 5 11.916 6.92919 10.4168 9.7524C6.8066 10.1288 4 13.1285 4 16.7634C4 20.657 7.22639 23.8214 11.1964 23.8214H26.7886C30.099 23.8214 32.7856 21.1864 32.7856 17.9397C32.7856 14.8342 30.3269 12.3168 27.2084 12.1051Z" fill="url(#paint1_linear_40000034_143)"/>
<defs>
<linearGradient id="paint0_linear_40000034_143" x1="24.8714" y1="21" x2="28.677" y2="29.2635" gradientUnits="userSpaceOnUse">
<stop stop-color="#E3E1F6"/>
<stop offset="0.588154" stop-color="#BAB1F0"/>
<stop offset="1" stop-color="#614AE2"/>
</linearGradient>
<linearGradient id="paint1_linear_40000034_143" x1="32.2321" y1="28.8035" x2="10.0893" y2="4.44643" gradientUnits="userSpaceOnUse">
<stop stop-color="#E3E1F6"/>
<stop offset="0.777684" stop-color="#E3CCC7"/>
<stop offset="0.851151" stop-color="#E3C3B3"/>
<stop offset="1" stop-color="#E3A572"/>
</linearGradient>
</defs>
</svg>
