<svg width="23" height="25" viewBox="0 0 23 25" fill="none" xmlns="http://www.w3.org/2000/svg">
<path d="M18.0909 5.70455C17.5568 2.47727 14.7386 0 11.3636 0C8.88636 0 6.625 1.34091 5.43182 3.47727C2.375 3.875 0 6.52273 0 9.65909C0 13.1023 2.80682 15.9091 6.25 15.9091H17.6136C20.4318 15.9091 22.7273 13.6136 22.7273 10.7955C22.7273 8.13636 20.6932 5.94318 18.0909 5.70455Z" fill="black"/>
<path d="M14.5457 17.0454L11.2503 20.8181L13.523 21.9545L10.8525 25H13.8639L17.1594 21.2272L14.8866 20.0909L17.5571 17.0454H14.5457Z" fill="black"/>
<path d="M7.72736 17.0454L4.43191 20.8181L6.70463 21.9545L4.03418 25H7.04554L10.341 21.2272L8.06827 20.0909L10.7387 17.0454H7.72736Z" fill="black"/>
</svg>
