<svg width="26" height="23" viewBox="0 0 26 23" fill="none" xmlns="http://www.w3.org/2000/svg">
<path d="M8.26953 11.1031H1.39941C0.969727 11.1031 0.618164 11.4547 0.618164 11.8844V13.4469C0.618164 13.8766 0.969727 14.2281 1.39941 14.2281H8.34277C9.11914 14.2281 9.84668 14.7603 9.97363 15.5269C10.1348 16.5035 9.38281 17.3531 8.43066 17.3531C7.74219 17.3531 7.15625 16.9039 6.94629 16.2838C6.84375 15.9762 6.52637 15.7906 6.2041 15.7906H4.60254C4.12402 15.7906 3.73828 16.2203 3.82617 16.6891C4.24609 18.8424 6.15039 20.4781 8.42578 20.4781C11.2139 20.4781 13.4404 18.0318 13.0742 15.1754C12.7764 12.8121 10.6475 11.1031 8.26953 11.1031ZM1.39941 9.54062H17.8057C20.7207 9.54062 23.0205 6.86484 22.3857 3.84238C22.0146 2.0748 20.584 0.644136 18.8164 0.273043C16.1113 -0.293364 13.6846 1.48886 13.2061 3.95957C13.1133 4.42832 13.5039 4.85312 13.9775 4.85312H15.5791C15.9062 4.85312 16.2188 4.66757 16.3213 4.35996C16.5313 3.73984 17.1172 3.29062 17.8057 3.29062C18.7529 3.29062 19.5098 4.14023 19.3486 5.11679C19.2217 5.88339 18.499 6.41562 17.7178 6.41562H1.39941C0.969727 6.41562 0.618164 6.76718 0.618164 7.19687V8.75937C0.618164 9.18906 0.969727 9.54062 1.39941 9.54062ZM20.1494 11.1031H12.5176C13.46 11.9137 14.1387 12.9977 14.4609 14.2281H20.1494C21.4434 14.2281 22.4932 15.2779 22.4932 16.5719C22.4932 17.8658 21.4434 18.9156 20.1494 18.9156C19.2754 18.9156 18.5234 18.4322 18.1182 17.7242C17.9766 17.4801 17.6934 17.3531 17.4102 17.3531H15.7598C15.2275 17.3531 14.832 17.8805 15.0127 18.3834C15.8818 20.8541 18.4551 22.524 21.3311 21.9137C23.3428 21.4889 24.998 19.8824 25.4668 17.8756C26.3018 14.3014 23.5918 11.1031 20.1494 11.1031Z" fill="black"/>
</svg>
